<svg version="1.1" xmlns="http://www.w3.org/2000/svg" xmlns:xlink="http://www.w3.org/1999/xlink" width="300" height="300" viewBox="0,0,256,256"><g fill="#ffffff" fill-rule="nonzero" stroke="none" stroke-width="1" stroke-linecap="butt" stroke-linejoin="miter" stroke-miterlimit="10" stroke-dasharray="" stroke-dashoffset="0" font-family="none" font-weight="none" font-size="none" text-anchor="none" style="mix-blend-mode: normal"><g transform="translate(-0.03502,0.00858) scale(4,4)"><path d="M51.36,44.9401l-3.88,-17c-0.0758,-0.334 -0.2644,-0.6317 -0.5339,-0.843c-0.2696,-0.2113 -0.6037,-0.3232 -0.9461,-0.317h-2.24c0.1477,-4.5463 -0.7449,-9.0663 -2.6096,-13.2152c-1.8648,-4.1489 -4.6525,-7.81711 -8.1504,-10.72484c-0.2704,-0.22269 -0.6098,-0.34445 -0.96,-0.34445c-0.3503,0 -0.6897,0.12176 -0.96,0.34445c-3.5053,2.90376 -6.3005,6.57022 -8.1723,10.71934c-1.8718,4.1491 -2.7706,8.6711 -2.6277,13.2207h-2.28c-0.339,-0.0016 -0.6685,0.1124 -0.9339,0.3233c-0.2655,0.2109 -0.451,0.5061 -0.5261,0.8367l-3.88,17c-0.0495,0.2192 -0.049,0.4467 0.0013,0.6658c0.0503,0.219 0.1492,0.424 0.2894,0.5996c0.1401,0.1757 0.318,0.3177 0.5204,0.4154c0.2024,0.0977 0.4241,0.1487 0.6489,0.1492h10.58v5.79c0.0026,0.397 0.1615,0.777 0.4422,1.0577c0.2808,0.2808 0.6608,0.4396 1.0578,0.4423h11.6c0.397,-0.0027 0.777,-0.1615 1.0577,-0.4423c0.2808,-0.2807 0.4397,-0.6607 0.4423,-1.0577v-5.79h10.6c0.2241,-0.0024 0.4449,-0.0546 0.6464,-0.1529c0.2014,-0.0982 0.3785,-0.2401 0.5183,-0.4153c0.1398,-0.1753 0.2388,-0.3794 0.2899,-0.5977c0.051,-0.2182 0.0529,-0.4451 0.0054,-0.6641zM19.18,29.7801h1.06v14h-4.24zM23.24,28.2801c-0.313,-4.1338 0.3124,-8.2848 1.8293,-12.1429c1.5169,-3.8581 3.8862,-7.32346 6.9307,-10.13714c3.0459,2.81475 5.4159,6.28174 6.9329,10.14174c1.517,3.8599 2.1416,8.0129 1.8271,12.1483v15.48h-17.52zM36.3,51.0601h-8.6v-4.29h8.6zM43.76,43.7701v-14h1.06l3.2,14z"></path><path d="M32,26.14c6.84,-0.22 6.84,-10.14 0,-10.36c-6.84,0.22 -6.84,10.14 0,10.36zM32,18.78c0.5782,0 1.1327,0.2297 1.5415,0.6385c0.4088,0.4089 0.6385,0.9634 0.6385,1.5415c0,0.5782 -0.2297,1.1327 -0.6385,1.5415c-0.4088,0.4089 -0.9633,0.6385 -1.5415,0.6385c-0.5782,0 -1.1327,-0.2296 -1.5415,-0.6385c-0.4088,-0.4088 -0.6385,-0.9633 -0.6385,-1.5415c0,-0.5781 0.2297,-1.1326 0.6385,-1.5415c0.4088,-0.4088 0.9633,-0.6385 1.5415,-0.6385z"></path><path d="M29.56,55.1101c-0.3978,0 -0.7794,0.158 -1.0607,0.4393c-0.2813,0.2814 -0.4393,0.6629 -0.4393,1.0607v3.39c0,0.3978 0.158,0.7794 0.4393,1.0607c0.2813,0.2813 0.6629,0.4393 1.0607,0.4393c0.3978,0 0.7794,-0.158 1.0607,-0.4393c0.2813,-0.2813 0.4393,-0.6629 0.4393,-1.0607v-3.39c0,-0.3978 -0.158,-0.7793 -0.4393,-1.0607c-0.2813,-0.2813 -0.6629,-0.4393 -1.0607,-0.4393z"></path><path d="M34.44,55.1101c-0.3978,0 -0.7794,0.158 -1.0607,0.4393c-0.2813,0.2814 -0.4393,0.6629 -0.4393,1.0607v3.39c0,0.3978 0.158,0.7794 0.4393,1.0607c0.2813,0.2813 0.6629,0.4393 1.0607,0.4393c0.3978,0 0.7794,-0.158 1.0607,-0.4393c0.2813,-0.2813 0.4393,-0.6629 0.4393,-1.0607v-3.39c0,-0.3978 -0.158,-0.7793 -0.4393,-1.0607c-0.2813,-0.2813 -0.6629,-0.4393 -1.0607,-0.4393z"></path></g></g></svg>