<svg version="1.1" xmlns="http://www.w3.org/2000/svg" xmlns:xlink="http://www.w3.org/1999/xlink" width="300" height="300" viewBox="0,0,256,256"><g fill="#ffffff" fill-rule="nonzero" stroke="none" stroke-width="1" stroke-linecap="butt" stroke-linejoin="miter" stroke-miterlimit="10" stroke-dasharray="" stroke-dashoffset="0" font-family="none" font-weight="none" font-size="none" text-anchor="none" style="mix-blend-mode: normal"><g transform="translate(-1.32149,-2.65649) scale(5.33333,5.33333)"><path d="M42.178,27.436l-2.554,-3.936c0.5575,-2.6364 0.4799,-5.3677 -0.2265,-7.9682c-0.7064,-2.6005 -2.0212,-4.9956 -3.836,-6.9877c-1.8147,-1.99206 -4.0773,-3.52385 -6.6009,-4.4689c-2.5236,-0.94504 -5.2358,-1.27623 -7.9126,-0.9662c-3.7402,0.4485 -7.2276,2.11946 -9.9206,4.75337c-2.69303,2.63393 -4.44098,6.08333 -4.9724,9.81263c-0.49681,3.5954 0.17487,7.2553 1.916,10.44c1.82115,3.3092 2.3241,7.1845 1.408,10.849l-1.449,5.794c-0.03676,0.1474 -0.03946,0.3012 -0.0079,0.4498c0.03156,0.1486 0.09656,0.288 0.19005,0.4077c0.0935,0.1197 0.21304,0.2166 0.34955,0.2832c0.13651,0.0666 0.2864,0.1013 0.4383,0.1013h16c0.2367,-0.0001 0.4657,-0.0842 0.6462,-0.2373c0.1806,-0.153 0.301,-0.3652 0.3398,-0.5987l0.842,-5.053l6.3,0.787c0.6096,0.0761 1.2284,0.0218 1.8154,-0.1594c0.587,-0.1811 1.1287,-0.485 1.5894,-0.8914c0.4607,-0.4064 0.8297,-0.9061 1.0827,-1.4659c0.2529,-0.5598 0.384,-1.167 0.3845,-1.7813v-4.922l3.243,-1.3c0.2743,-0.1098 0.5209,-0.2789 0.722,-0.4954c0.2011,-0.2164 0.3518,-0.4746 0.4412,-0.7562c0.0894,-0.2816 0.1153,-0.5795 0.0758,-0.8723c-0.0394,-0.2928 -0.1433,-0.5732 -0.304,-0.8211zM38,20c-0.0105,1.0087 -0.1227,2.0138 -0.335,3h-2.2c0.0235,-0.1656 0.0355,-0.3327 0.036,-0.5c0,-0.9283 -0.3688,-1.8185 -1.0251,-2.4749c-0.6564,-0.6564 -1.5466,-1.0251 -2.4749,-1.0251c-0.9283,0 -1.8185,0.3687 -2.4749,1.0251c-0.6564,0.6564 -1.0251,1.5466 -1.0251,2.4749c0.0005,0.1673 0.0125,0.3344 0.036,0.5h-3.537v-5c0,-0.1857 -0.0517,-0.3678 -0.1493,-0.5257c-0.0977,-0.158 -0.2374,-0.2857 -0.4035,-0.3687c-0.1661,-0.0831 -0.352,-0.1182 -0.537,-0.1016c-0.185,0.0167 -0.3616,0.0846 -0.5102,0.196c-0.2229,0.1671 -0.4878,0.2689 -0.7653,0.2939c-0.2774,0.0251 -0.5564,-0.0277 -0.8055,-0.1523c-0.2492,-0.1245 -0.4587,-0.316 -0.6052,-0.553c-0.1464,-0.237 -0.224,-0.51 -0.224,-0.7886c0,-0.2786 0.0776,-0.5516 0.224,-0.7886c0.1465,-0.237 0.356,-0.4285 0.6052,-0.553c0.2491,-0.1246 0.5281,-0.1774 0.8055,-0.1523c0.2775,0.025 0.5424,0.1268 0.7653,0.2939c0.1486,0.1114 0.3252,0.1793 0.5102,0.196c0.185,0.0166 0.3709,-0.0185 0.537,-0.1016c0.1661,-0.083 0.3058,-0.2107 0.4035,-0.3687c0.0976,-0.1579 0.1493,-0.34 0.1493,-0.5257v-8.853c2.977,0.38435 5.7669,1.66422 8,3.67c1.5724,1.4081 2.8303,3.1317 3.6919,5.0586c0.8615,1.9269 1.3072,4.0137 1.3081,6.1244zM8.138,17.94c0.46953,-3.2877 2.0113,-6.3285 4.386,-8.65023c2.3747,-2.32172 5.4495,-3.79453 8.747,-4.18977c0.5741,-0.06386 1.1513,-0.09558 1.729,-0.095v7.531c-0.4968,-0.0718 -1.0032,-0.0359 -1.4849,0.1052c-0.4817,0.1412 -0.9274,0.3843 -1.3068,0.7128c-0.3795,0.3286 -0.6838,0.7349 -0.8924,1.1914c-0.2086,0.4566 -0.3166,0.9527 -0.3166,1.4546c0,0.5019 0.108,0.998 0.3166,1.4545c0.2086,0.4566 0.5129,0.8629 0.8924,1.1915c0.3794,0.3285 0.8251,0.5716 1.3068,0.7128c0.4817,0.1411 0.9881,0.177 1.4849,0.1052v3.536h-5c-0.1857,0 -0.3678,0.0517 -0.5257,0.1493c-0.158,0.0977 -0.2857,0.2374 -0.3687,0.4035c-0.0831,0.1661 -0.1182,0.352 -0.1016,0.537c0.0167,0.185 0.0846,0.3616 0.196,0.5102c0.1671,0.2229 0.2689,0.4878 0.2939,0.7653c0.0251,0.2774 -0.0277,0.5564 -0.1523,0.8055c-0.1245,0.2492 -0.316,0.4587 -0.553,0.6052c-0.237,0.1464 -0.51,0.224 -0.7886,0.224c-0.2786,0 -0.5516,-0.0776 -0.7886,-0.224c-0.237,-0.1465 -0.4285,-0.356 -0.553,-0.6052c-0.1246,-0.2491 -0.1774,-0.5281 -0.1523,-0.8055c0.025,-0.2775 0.1268,-0.5424 0.2939,-0.7653c0.1114,-0.1486 0.1793,-0.3252 0.196,-0.5102c0.0166,-0.185 -0.0185,-0.3709 -0.1016,-0.537c-0.083,-0.1661 -0.2107,-0.3058 -0.3687,-0.4035c-0.1579,-0.0976 -0.34,-0.1493 -0.5257,-0.1493h-5.689c-0.34069,-1.6651 -0.39917,-3.3756 -0.173,-5.06zM9.825,27.154c-0.37854,-0.6911 -0.70124,-1.4114 -0.965,-2.154h3.676c-0.0235,0.1656 -0.0356,0.3327 -0.036,0.5c0,0.9283 0.3687,1.8185 1.0251,2.4749c0.6564,0.6563 1.5466,1.0251 2.4749,1.0251c0.9283,0 1.8185,-0.3688 2.4749,-1.0251c0.6564,-0.6564 1.0251,-1.5466 1.0251,-2.4749c-0.0004,-0.1673 -0.0125,-0.3344 -0.036,-0.5h3.536v5c0,0.1857 0.0517,0.3678 0.1493,0.5257c0.0977,0.158 0.2374,0.2857 0.4035,0.3687c0.1661,0.0831 0.352,0.1182 0.537,0.1016c0.185,-0.0167 0.3616,-0.0846 0.5102,-0.196c0.2229,-0.1671 0.4878,-0.2689 0.7653,-0.2939c0.2774,-0.0251 0.5564,0.0277 0.8055,0.1523c0.2492,0.1245 0.4587,0.316 0.6052,0.553c0.1464,0.237 0.224,0.51 0.224,0.7886c0,0.2786 -0.0776,0.5516 -0.224,0.7886c-0.1465,0.237 -0.356,0.4285 -0.6052,0.553c-0.2491,0.1246 -0.5281,0.1774 -0.8055,0.1523c-0.2775,-0.025 -0.5424,-0.1268 -0.7653,-0.2939c-0.1486,-0.1114 -0.3252,-0.1793 -0.5102,-0.196c-0.185,-0.0166 -0.3709,0.0185 -0.537,0.1016c-0.1661,0.083 -0.3058,0.2107 -0.4035,0.3687c-0.0976,0.1579 -0.1493,0.34 -0.1493,0.5257v10h-12.72l1.138,-4.552c1.0395,-4.1522 0.4704,-8.5439 -1.593,-12.294zM37.259,29.82c-0.3723,0.1469 -0.6917,0.4027 -0.9163,0.734c-0.2246,0.3314 -0.3441,0.7227 -0.3427,1.123v4.923c0.0001,0.4908 -0.1544,0.9692 -0.4416,1.3672c-0.2872,0.3979 -0.6925,0.6953 -1.1584,0.8498c-0.3314,0.1089 -0.6828,0.1431 -1.029,0.1l-7.249,-0.906c-0.2561,-0.0319 -0.5146,0.0365 -0.7215,0.1908c-0.2069,0.1543 -0.3461,0.3826 -0.3885,0.6372l-0.012,0.079v-3.454c0.1656,0.0235 0.3327,0.0356 0.5,0.036c0.9283,0 1.8185,-0.3688 2.4749,-1.0251c0.6564,-0.6564 1.0251,-1.5466 1.0251,-2.4749c0,-0.9283 -0.3687,-1.8185 -1.0251,-2.4749c-0.6564,-0.6564 -1.5466,-1.0251 -2.4749,-1.0251c-0.1673,0.0004 -0.3344,0.0125 -0.5,0.036v-3.536h5c0.1857,0 0.3678,-0.0517 0.5257,-0.1494c0.158,-0.0976 0.2857,-0.2373 0.3687,-0.4034c0.0831,-0.1661 0.1182,-0.352 0.1016,-0.537c-0.0167,-0.185 -0.0846,-0.3616 -0.196,-0.5102c-0.1671,-0.2229 -0.2689,-0.4879 -0.2939,-0.7653c-0.0251,-0.2774 0.0277,-0.5564 0.1523,-0.8055c0.1245,-0.2492 0.316,-0.4587 0.553,-0.6052c0.237,-0.1464 0.51,-0.224 0.7886,-0.224c0.2786,0 0.5516,0.0776 0.7886,0.224c0.237,0.1465 0.4285,0.356 0.553,0.6052c0.1246,0.2491 0.1774,0.5281 0.1523,0.8055c-0.025,0.2774 -0.1268,0.5424 -0.2939,0.7653c-0.1114,0.1486 -0.1793,0.3252 -0.196,0.5102c-0.0166,0.185 0.0185,0.3709 0.1016,0.537c0.083,0.1661 0.2107,0.3058 0.3687,0.4034c0.1579,0.0977 0.34,0.1494 0.5257,0.1494h4.216l2.284,3.523z"></path></g></g></svg>